<?xml version="1.0" encoding="UTF-8" standalone="no"?>
<!-- Created with Inkscape (http://www.inkscape.org/) -->

<svg
   width="512"
   height="512"
   viewBox="0 0 135.46666 135.46667"
   version="1.1"
   id="svg5"
   inkscape:version="1.2.2 (b0a8486541, 2022-12-01)"
   sodipodi:docname="icon.svg"
   xmlns:inkscape="http://www.inkscape.org/namespaces/inkscape"
   xmlns:sodipodi="http://sodipodi.sourceforge.net/DTD/sodipodi-0.dtd"
   xmlns="http://www.w3.org/2000/svg"
   xmlns:svg="http://www.w3.org/2000/svg">
  <sodipodi:namedview
     id="namedview7"
     pagecolor="#ffffff"
     bordercolor="#000000"
     borderopacity="0.25"
     inkscape:showpageshadow="2"
     inkscape:pageopacity="0.0"
     inkscape:pagecheckerboard="0"
     inkscape:deskcolor="#d1d1d1"
     inkscape:document-units="px"
     showgrid="false"
     inkscape:zoom="0.59969163"
     inkscape:cx="225.94946"
     inkscape:cy="256.79865"
     inkscape:window-width="1366"
     inkscape:window-height="731"
     inkscape:window-x="0"
     inkscape:window-y="0"
     inkscape:window-maximized="1"
     inkscape:current-layer="layer1" />
  <defs
     id="defs2">
    <rect
       x="-150.8349"
       y="110.39946"
       width="411.39219"
       height="403.33182"
       id="rect277" />
  </defs>
  <g
     inkscape:label="Слой 1"
     inkscape:groupmode="layer"
     id="layer1">
    <g
       id="g286"
       transform="translate(65.054447,-24.365901)">
      <rect
         style="fill:#ffffff;stroke-width:0.266182"
         id="rect111"
         width="135.46666"
         height="135.46666"
         x="-65.054443"
         y="24.365906"
         ry="18.5263" />
      <path
         id="rect281"
         style="fill:#000000;stroke-width:0.266182"
         d="m -46.527931,24.365899 c -10.26356,0 -18.526518,8.262958 -18.526518,18.526518 v 98.413633 c 0,10.26356 8.262958,18.52652 18.526518,18.52652 h 98.413633 c 10.26356,0 18.52652,-8.26296 18.52652,-18.52652 V 42.892417 c 0,-10.26356 -8.26296,-18.526518 -18.52652,-18.526518 z M -26.375673,34.23403 2.7600119,116.922 31.896222,34.23403 63.148582,149.96444 H 49.801072 L 29.454512,75.089418 2.4349719,149.96444 -24.096742,75.089418 -44.443304,149.96444 H -57.79081 Z" />
    </g>
  </g>
</svg>
